<?xml version="1.0" encoding="UTF-8" standalone="no"?>
<svg
   width="2000"
   height="2000"
   version="1.1"
   id="svg10"
   xmlns="http://www.w3.org/2000/svg"
   xmlns:svg="http://www.w3.org/2000/svg">
  <defs
     id="defs14" />
  <path
     d="M250 0h1500a250 250 45 01250 250v1500a250 250 135 01-250 250H250A250 250 45 010 1750V250A250 250 135 01250 0z"
     fill-rule="evenodd"
     id="bkg" />
  <g
     fill-rule="evenodd"
     id="logo">
    <path
       d="M796.77 500A296.663 296.663 0 00500.1 796.671a296.663 296.663 0 0081.52 203.318 296.663 296.663 0 00-81.52 203.34A296.663 296.663 0 00796.77 1500a296.663 296.663 0 00268.337-170.644l156.334 160.892 541.779-3.791-421.208-428.418a296.663 296.663 0 00157.89-261.368A296.663 296.663 0 001203.252 500a296.663 296.663 0 00-202.857 81.06A296.663 296.663 0 00796.77 500z"
       fill="#fff"
       id="lett" />
    <path
       d="M806.675 578.474a224.399 224.399 0 00-224.399 224.399A224.399 224.399 0 00699.56 999.419a224.399 224.399 0 00-119.475 197.708 224.399 224.399 0 00224.399 224.4 224.399 224.399 0 00192.887-112.244V684.888a224.399 224.399 0 00-190.696-106.414z"
       id="cut" />
  </g>
</svg>
