<svg viewBox="0 0 170.91 206.535" width="85.455" height="103.268" xmlns="http://www.w3.org/2000/svg"><g fill="#fff"><path style="mix-blend-mode:normal" d="M68.38 0a8.52 8.52 0 00-6.1 2.468 8.523 8.523 0 00-2.55 6.067H8.647a8.523 8.523 0 00-7.483 4.233 8.527 8.527 0 000 8.6 8.523 8.523 0 007.483 4.234h153.6a8.55 8.55 0 007.5-4.234 8.527 8.527 0 000-8.6 8.55 8.55 0 00-7.5-4.233h-51.083a8.507 8.507 0 00-2.534-6.067 8.56 8.56 0 00-6.116-2.466z" font-family="none"/><path d="M58.48 40.584v.017H15.113c-1.14-.05-2.282.057-3.4.317-1.85.46-3.548 1.506-4.9 3.016-1.569 1.72-2.555 4.016-2.784 6.484-.043.93-.01 1.86.1 2.783l12.084 142.785v.8c.083.591.2 1.176.35 1.75v.116c1.316 4.614 5.046 7.776 9.3 7.884h119.184c4.254-.108 7.984-3.27 9.3-7.884v-.116c.15-.574.267-1.159.35-1.75v-.8L166.781 53.2c.11-.922.143-1.854.1-2.783-.229-2.468-1.215-4.764-2.784-6.484-1.352-1.51-3.05-2.555-4.9-3.016a12.573 12.573 0 00-3.4-.317H110.48v-.017z"/></g></svg>