<?xml version="1.0" encoding="UTF-8" standalone="no"?>
<svg
   id="Layer_1"
   data-name="Layer 1"
   viewBox="0 0 20 13.12"
   version="1.1"
   xmlns="http://www.w3.org/2000/svg"
   xmlns:svg="http://www.w3.org/2000/svg"
   xmlns:rdf="http://www.w3.org/1999/02/22-rdf-syntax-ns#"
   xmlns:cc="http://creativecommons.org/ns#"
   xmlns:dc="http://purl.org/dc/elements/1.1/">
  <defs
     id="defs4">
    <style
       id="style2">.cls-1{fill:#fff;stroke:#323a47;stroke-linecap:round;stroke-linejoin:round;}.cls-2{fill:#ff5e5b;}</style>
  </defs>
  <title
     id="title6">Kofi Cup</title>
  <g
     id="layer1">
    <path
       id="cup"
       class="cls-1"
       d="m 15.54,7.29 a 5.87,5.87 0 0 1 -1.33,0 V 2.82 h 0.9 a 2,2 0 0 1 2.06,2.09 2.21,2.21 0 0 1 -1.63,2.38 M 19.41,4.14 A 4.34,4.34 0 0 0 17.63,1.34 4.8,4.8 0 0 0 14.91,0.5 H 1.17 A 0.72,0.72 0 0 0 0.5,1.21 c 0,0 0,0.15 0,0.15 0,0 0,6.08 0,9.33 a 2,2 0 0 0 2.08,1.91 h 9.28 a 3,3 0 0 0 0.42,-0.05 2.65,2.65 0 0 0 1.87,-2.91 c 3.44,0.19 5.87,-2.24 5.26,-5.47"
       style="stroke:#000000;stroke-opacity:1" />
    <path
       id="heart"
       class="cls-2"
       d="m 5.4472656,3.4042969 a 2.57,2.57 0 0 0 -0.8476562,0.125 2.1,2.1 0 0 0 -0.5703125,3.4101562 c 0.9799983,1.1399978 3.1699219,3.1406249 3.1699219,3.1406249 a 0.19,0.19 0 0 0 0.140625,0.03711 0.19,0.19 0 0 0 0.140625,-0.03711 c 0,0 2.1899234,-2.0006271 3.1699222,-3.1406249 A 2.1,2.1 0 0 0 10.080078,3.5292969 2.57,2.57 0 0 0 9.2324219,3.4042969 2.57,2.57 0 0 0 7.3398438,4.2890625 2.57,2.57 0 0 0 5.4472656,3.4042969 Z" />
  </g>
  <metadata
     id="metadata606">
    <rdf:RDF>
      <cc:Work
         rdf:about="">
        <dc:title>Kofi Cup</dc:title>
      </cc:Work>
    </rdf:RDF>
  </metadata>
</svg>
